<?xml version="1.0" encoding="UTF-8"?>
<svg width="400px" height="400px" viewBox="0 0 400 400" version="1.1" xmlns="http://www.w3.org/2000/svg" xmlns:xlink="http://www.w3.org/1999/xlink">
    <!-- Generator: Sketch 52.4 (67378) - http://www.bohemiancoding.com/sketch -->
    <title>icon-profile</title>
    <desc>Created with Sketch.</desc>
    <g id="icon-profile" stroke="none" stroke-width="1" fill="none" fill-rule="evenodd">
        <path d="M288.668813,83.0335084 L288.668813,85.8941144 L288.668813,317.603034 L111.100813,317.603034 L111.100813,83.0335084 L288.668813,83.0335084 Z M280.076813,91.6153265 L119.692813,91.6153265 L119.692813,309.021216 L280.076813,309.021216 L280.076813,91.6153265 Z M245.247422,218.3729 L245.247422,219.15525 L245.247422,225.518837 L154.522203,225.518837 L154.522203,218.3729 L245.247422,218.3729 Z M245.247422,240.71738 L245.247422,241.49973 L245.247422,247.863317 L154.522203,247.863317 L154.522203,240.71738 L245.247422,240.71738 Z M217.144422,166.935227 L217.144422,167.555407 L217.144422,184.797252 L182.625203,184.797252 L182.625203,166.935227 L188.342034,166.935227 L188.342034,179.081618 L211.427592,179.081618 L211.427592,166.935227 L217.144422,166.935227 Z M199.887677,148.810599 C205.413765,148.810599 209.945186,153.336736 209.945186,158.856246 C209.945186,164.375757 205.413192,168.901894 199.887677,168.901894 C194.361875,168.901894 189.82444,164.375757 189.82444,158.856246 C189.82444,153.336736 194.361589,148.810599 199.887677,148.810599 Z M199.887677,154.520626 C197.449554,154.520626 195.546712,156.421155 195.546712,158.856246 C195.546712,161.291309 197.448981,163.191838 199.887677,163.191838 C202.326086,163.191838 204.228355,161.291309 204.228355,158.856246 C204.228355,156.421155 202.325514,154.520626 199.887677,154.520626 Z M199.887789,128.998671 C220.756545,128.998671 237.734864,145.956977 237.734864,166.801121 C237.734864,187.645325 220.756545,204.603572 199.887789,204.603602 C179.018736,204.603602 162.034762,187.645325 162.034762,166.801121 C162.034762,145.956977 179.018736,128.998671 199.887789,128.998671 Z M199.887677,136.139001 C182.899574,136.139001 169.189034,149.83318 169.189034,166.801122 C169.189034,183.76915 182.899574,197.463243 199.887677,197.463243 C216.875779,197.463243 230.580592,183.76915 230.580592,166.801122 C230.580592,149.83318 216.875779,136.139001 199.887677,136.139001 Z M245.247422,263.061632 L245.247422,263.843981 L245.247422,270.207568 L154.522203,270.207568 L154.522203,263.061632 L245.247422,263.061632 Z" fill="#000000"></path>
    </g>
</svg>