<?xml version="1.0" encoding="UTF-8"?>
<svg width="400px" height="400px" viewBox="0 0 400 400" version="1.1" xmlns="http://www.w3.org/2000/svg" xmlns:xlink="http://www.w3.org/1999/xlink">
    <!-- Generator: Sketch 52.4 (67378) - http://www.bohemiancoding.com/sketch -->
    <title>icon-address</title>
    <desc>Created with Sketch.</desc>
    <g id="icon-address" stroke="none" stroke-width="1" fill="none" fill-rule="evenodd">
        <path d="M298,167.860742 L298,284.015412 C298,292.843456 290.884958,300 282.108108,300 L117.891892,300 C109.115042,300 102,292.843456 102,284.015412 L102,167.860742 C102.018951,162.969306 104.263506,158.355853 108.091892,155.339481 L190.2,91.4011306 C195.955516,86.8662898 204.044484,86.8662898 209.8,91.4011306 L291.908108,155.339481 C295.736494,158.355853 297.981049,162.969306 298,167.860742 Z M287.405405,284.015412 L287.405405,167.860742 C287.405405,166.183653 286.620377,164.604438 285.286486,163.598185 L203.178378,99.6598342 C201.294895,98.238982 198.705105,98.238982 196.821622,99.6598342 L114.713514,163.598185 C113.379623,164.604438 112.594595,166.183653 112.594595,167.860742 L112.594595,284.015412 C112.594595,286.958094 114.966275,289.343608 117.891892,289.343608 L282.108108,289.343608 C285.033725,289.343608 287.405405,286.958094 287.405405,284.015412 Z M205.283019,207 C225.458537,206.999472 241.854852,223.466127 242,243.874494 L242,264.983806 C242,267.109833 241.165097,269.148783 239.678959,270.652111 C238.192822,272.155439 236.177187,273 234.075472,273 L165.924528,273 C161.547932,273 158,269.411028 158,264.983806 L158,243.874494 C158.145148,223.466127 174.541463,206.999472 194.716981,207 L205.283019,207 Z M231.433962,262.578947 L231.433962,244.1417 C231.433962,229.531868 219.725786,217.688259 205.283019,217.688259 L194.716981,217.688259 C180.376746,217.687519 168.710889,229.369119 168.566038,243.874494 L168.566038,262.578947 L231.433962,262.578947 Z M200.5,205 C185.864454,205 174,193.135546 174,178.5 C174,163.864454 185.864454,152 200.5,152 C215.135546,152 227,163.864454 227,178.5 C227,193.135546 215.135546,205 200.5,205 Z M200.5,162.6 L200.5,162.335 C196.236739,162.334408 192.151828,164.04591 189.162263,167.0853 C186.172699,170.124691 184.528946,174.237332 184.6,178.5 C184.6,187.281328 191.718672,194.4 200.5,194.4 C209.281328,194.4 216.4,187.281328 216.4,178.5 C216.4,169.718672 209.281328,162.6 200.5,162.6 Z" fill="#000000" fill-rule="nonzero"></path>
    </g>
</svg>