<?xml version="1.0" encoding="UTF-8"?>
<svg width="400px" height="400px" viewBox="0 0 400 400" version="1.1" xmlns="http://www.w3.org/2000/svg" xmlns:xlink="http://www.w3.org/1999/xlink">
    <!-- Generator: Sketch 52.4 (67378) - http://www.bohemiancoding.com/sketch -->
    <title>icon-orders</title>
    <desc>Created with Sketch.</desc>
    <g id="icon-orders" stroke="none" stroke-width="1" fill="none" fill-rule="evenodd">
        <path d="M336.219355,166.326633 L337.703226,165.437186 L337.703226,199.236181 L336.219355,200.125628 L254.012903,251.120603 L254.012903,214.949749 L288.735484,194.19598 C289.922581,195.085427 291.109677,195.974874 292,196.567839 C292.890323,197.160804 293.483871,197.457286 294.374194,197.753769 C297.045161,198.643216 300.012903,198.050251 303.870968,193.899497 C303.870968,193.899497 304.167742,193.603015 304.167742,193.603015 C305.354839,191.527638 307.135484,186.190955 305.948387,184.115578 L336.219355,166.326633 Z M255.2,253.788945 L254.606452,289.959799 L254.606452,295 L323.458065,245.487437 L336.219355,237.18593 L336.219355,236.296482 L337.406452,235.407035 L337.406452,205.165829 L337.703226,204.869347 L337.703226,202.497487 L336.219355,203.386935 L255.2,253.788945 Z M338,161.879397 L332.658065,165.140704 L303.870968,182.040201 C302.387097,181.447236 300.903226,181.150754 299.122581,180.854271 C295.858065,180.557789 292.593548,180.557789 289.625806,180.854271 C287.251613,181.150754 285.470968,182.633166 285.174194,185.005025 C284.580645,187.673367 284.580645,190.045226 286.36129,191.824121 C286.36129,191.824121 286.36129,191.824121 286.36129,191.824121 L286.064516,192.120603 L252.825806,212.281407 L143.612903,180.854271 L138.270968,179.371859 L134.412903,178.18593 L133.522581,181.150754 L136.193548,182.040201 L251.045161,215.542714 L251.045161,251.713568 L139.16129,215.246231 L138.567742,216.728643 L137.974194,218.211055 L141.535484,219.396985 L252.232258,254.974874 L251.935484,289.663317 L251.935484,294.110553 L74.1677419,230.663317 L71.4967742,199.532663 L65.5612903,197.753769 L62,157.135678 L107.406452,138.457286 L108.593548,138.457286 C110.077419,138.457286 111.264516,138.753769 112.748387,139.050251 C114.825806,139.346734 118.090323,139.643216 120.167742,139.346734 C119.870968,138.457286 119.574194,137.567839 119.870968,136.38191 C120.167742,134.603015 121.354839,132.824121 123.135484,132.231156 L157.264516,118 L158.748387,118.296482 L338,161.879397 Z M133.225806,210.20603 L133.225806,184.708543 L71.7935484,167.21608 L73.8709677,190.934673 L133.225806,210.20603 Z M79.8064516,202.201005 L81.5870968,224.733668 L139.458065,245.190955 L138.567742,221.175879 L79.8064516,202.201005 Z M209.793548,139.643216 L158.154839,127.190955 L130.258065,138.753769 C130.258065,139.050251 130.258065,139.346734 130.258065,139.643216 C130.258065,140.829146 129.96129,142.904523 128.180645,144.683417 C126.4,146.462312 124.025806,147.055276 123.432258,147.351759 C121.948387,147.648241 120.167742,147.944724 118.090323,147.944724 C115.716129,147.944724 113.341935,147.648241 111.56129,147.351759 C110.670968,147.351759 109.780645,147.055276 108.890323,147.055276 L78.3225806,159.80402 L136.787097,176.407035 L209.793548,139.643216 Z" fill="#000000" fill-rule="nonzero"></path>
    </g>
</svg>