<?xml version="1.0" encoding="UTF-8"?>
<svg width="400px" height="400px" viewBox="0 0 400 400" version="1.1" xmlns="http://www.w3.org/2000/svg" xmlns:xlink="http://www.w3.org/1999/xlink">
    <!-- Generator: Sketch 52.4 (67378) - http://www.bohemiancoding.com/sketch -->
    <title>icon-sneaker</title>
    <desc>Created with Sketch.</desc>
    <g id="icon-sneaker" stroke="none" stroke-width="1" fill="none" fill-rule="evenodd">
        <path d="M334.952693,270.684047 L331.919894,250.35688 C331.642658,248.506406 330.192067,247.08771 328.38863,246.818551 C328.08339,246.00266 327.640932,245.130695 327.013649,244.233496 C322.090602,237.193286 308.660036,232.942805 287.094401,231.59981 C277.312715,230.321302 250.857636,225.504464 243.691494,218.329675 C243.534673,218.172665 243.333047,218.102571 243.159424,217.976403 L244.147954,216.039013 C244.831244,214.698822 244.335579,213.05863 243.027807,212.318441 L211.056003,194.326794 C210.372713,193.942681 209.566207,193.861372 208.818509,194.105298 C208.076411,194.346421 207.468732,194.887544 207.138288,195.596892 L207.101883,195.675397 L204.251109,192.952958 C205.32365,192.204358 205.791311,190.82211 205.25084,189.577247 L191.016568,156.865927 C190.411689,155.489287 188.837882,154.836014 187.443299,155.368726 L182.691074,157.199573 L172.77497,131.029396 C172.156089,129.397615 170.593483,128.315369 168.848854,128.315369 L163.696176,128.315369 C158.588305,117.049912 153.514038,111.103164 148.182137,110.133068 C144.415641,109.451757 142.147343,111.596624 141.912112,111.832139 L125.577565,127.953685 C125.364737,128.163966 125.182713,128.410696 125.048295,128.679856 L118.153789,142.264011 C116.669593,143.52009 115.812681,144.389252 115.681063,144.526635 C115.591452,144.619159 115.507441,144.71729 115.42623,144.818225 L95.9944751,169.135125 L84.5829747,170.063166 C81.6509892,170.301484 79.0298446,171.969714 77.5680524,174.521124 C76.5571195,176.287484 76.1902713,178.317398 76.5095133,180.330488 L75.3529612,181.94825 C74.9749115,182.475355 74.7256787,183.086572 74.6220651,183.731433 L70.5251264,209.48946 C67.2710986,216.767987 65.6776891,242.660593 65,258.221391 L65,286.727089 C65,289.048592 66.8818474,290.93271 69.2005523,290.93271 L223.828483,290.93271 C224.422161,290.943925 227.250532,291 231.655512,291 C253.6244,291 314.77604,289.609341 333.434893,274.58406 C334.594246,273.647608 335.176722,272.164426 334.952693,270.684047 Z M286.156277,239.960585 C286.248689,239.974604 286.343902,239.983015 286.439114,239.988622 C318.279301,241.948442 320.508394,249.591457 320.617608,250.157814 C320.511194,250.693329 320.522396,251.237256 320.620409,251.764361 C305.747653,258.05597 236.810989,260.290556 204.833585,260.733548 L209.532603,254.315771 L232.159578,247.31201 C234.791924,246.498923 237.037819,245.049386 238.653632,243.126015 C241.033945,240.297034 241.145959,237.796092 240.821117,236.195152 C240.401061,234.103557 238.972874,232.27271 236.654169,230.705415 L239.258511,225.608203 C251.165677,235.191411 282.473793,239.486752 286.156277,239.960585 Z M237.936737,215.884807 L230.818202,229.813823 C230.451353,230.531583 229.572038,230.823172 228.855143,230.464293 L204.419131,218.304441 C203.699436,217.948365 203.402597,217.096026 203.738641,216.369855 L210.95519,200.702516 L237.936737,215.884807 Z M198.653173,214.020315 C197.04016,217.522195 198.47955,221.610059 201.926803,223.325952 L226.365616,235.485804 C227.365348,235.984871 228.432288,236.220386 229.485226,236.220386 C230.815401,236.220386 232.114772,235.830665 233.24052,235.132532 C234.91234,236.172722 235.267987,236.974594 235.332395,237.305436 C235.483615,238.054037 234.794724,239.010115 234.366268,239.517593 C233.444947,240.619465 232.106371,241.46059 230.50456,241.956853 L206.992669,249.235381 C206.418594,249.412017 205.914527,249.768093 205.55888,250.253141 L198.541158,259.833545 C198.333931,260.116724 198.207914,260.42794 198.118302,260.747567 L73.4823152,256.642881 C74.1516032,242.377415 75.4341719,226.595122 76.7447442,218.433413 C77.9517029,218.668928 79.4779035,218.876405 81.230934,218.876405 C84.0789085,218.876405 87.467354,218.34089 90.813794,216.535276 C96.8933933,213.254892 101.060341,206.814685 103.199822,197.394094 C108.713747,173.14168 134.429528,155.825737 134.762772,155.601437 C134.866386,155.525736 145.236149,148.306087 154.617383,148.970575 C156.983694,154.866855 158.635911,160.47435 159.669247,166.067826 L148.002913,170.559429 C147.227211,170.85943 146.625132,171.487469 146.356297,172.278126 C146.087461,173.065979 146.185474,173.935141 146.622332,174.644489 L163.841796,202.712802 C165.522016,205.446456 168.468004,206.994125 171.509204,206.994125 C172.746966,206.994125 174.001531,206.73618 175.186087,206.200664 L196.186048,196.70998 C196.317665,196.881008 196.390475,197.080074 196.552896,197.23428 L202.929335,203.324019 C203.077754,203.46701 203.265379,203.528693 203.430601,203.643647 L198.653173,214.020315 Z M101.415988,175.802436 L103.569471,173.108035 L108.302093,173.727663 C107.226752,175.224864 106.187815,176.780944 105.193685,178.395902 C105.120875,178.37908 105.059267,178.33422 104.983657,178.323005 L97.9631339,177.40618 L98.4756013,177.364123 C99.629353,177.274404 100.693493,176.708047 101.415988,175.802436 Z M84.5213666,183.563209 C85.00303,182.890309 85.2298598,182.071615 85.2494624,181.24451 C85.4874937,181.348248 85.7227246,181.463202 85.9915599,181.496847 L102.317706,183.627695 C101.595211,185.077232 100.931524,186.560414 100.318244,188.082849 C99.9093898,187.712755 99.4221258,187.421165 98.8340484,187.34266 L83.2668017,185.309943 L84.5213666,183.563209 Z M79.0606487,209.276375 L89.6264378,210.655818 C89.1671775,210.986661 88.699516,211.297877 88.2094515,211.567036 C84.4373556,213.624987 80.477635,213.397883 78.1253257,212.980125 C78.4137636,212.509095 78.6265916,211.99601 78.7162034,211.452083 L79.0606487,209.276375 Z M94.1546332,205.595055 L79.9427647,203.738974 L80.5336423,200.029616 L95.9076637,202.037099 C95.3811945,203.329627 94.7987179,204.524023 94.1546332,205.595055 Z M82.0122367,190.802484 L98.1143538,192.905295 C98.23757,192.922117 98.3579859,192.930528 98.4784017,192.930528 C98.5372094,192.930528 98.587616,192.902491 98.6464238,192.899687 C98.3271818,193.976326 97.9883373,195.044554 97.7363041,196.14923 C97.6886979,196.359511 97.6298901,196.544558 97.5794835,196.749232 C97.3526537,196.653905 97.134225,196.541755 96.8765911,196.510913 L81.4101576,194.492215 L81.9982349,190.79968 C82.006636,190.79968 82.0094364,190.802484 82.0122367,190.802484 Z M199.01162,189.280049 L172.886985,201.089433 C171.32998,201.779155 169.50134,201.221209 168.619224,199.774475 L153.158391,174.582806 L186.950434,161.567811 L199.01162,189.280049 Z M174.850043,160.219209 L164.973144,164.023894 C163.245317,155.25938 160.100504,146.469632 155.199859,136.726611 L165.950473,136.726611 L174.850043,160.219209 Z M129.828524,131.626594 L145.765419,115.894768 C145.857831,115.821871 146.364698,115.462991 147.330825,115.684487 C148.73941,116.018133 152.430295,117.9387 157.498962,128.318173 L151.111322,128.318173 C150.965703,128.318173 150.817283,128.326584 150.674464,128.340603 C141.354839,129.316307 133.609021,132.417251 127.789856,135.649972 L129.828524,131.626594 Z M121.841873,150.24628 C123.018028,149.088332 133.155361,139.538769 149.078254,137.046238 C150.198402,139.191104 151.217736,141.277092 152.167061,143.323828 C141.716087,143.83411 131.993208,150.689272 131.595556,150.97245 C130.923468,151.415443 121.309804,157.914529 112.320622,168.596806 L107.660809,167.988393 L121.841873,150.24628 Z M73.3983042,262.247572 L199.479281,266.399922 C201.898799,266.380295 208.429258,266.310202 217.317626,266.122351 C209.241365,271.990594 204.816783,280.090619 203.621026,282.521468 L73.4011046,282.521468 L73.3983042,262.247572 Z M223.920895,282.521468 L210.019867,282.521468 C213.033063,277.499957 220.277616,267.759739 231.971953,265.743845 C265.25713,264.742907 312.877391,262.261591 324.294492,256.188674 L326.26315,269.380305 C307.131035,281.528942 246.536668,283.006517 223.920895,282.521468 Z" fill="#000000" fill-rule="nonzero"></path>
    </g>
</svg>
